{"title":"Brothers Justice XViD DVDRIP - IMAGiNE","uid":6484205,"size":1470044908,"categoryP":"video","categoryS":"movies","magnet":"?xt=urn:btih:3e6bf5ea6d66c4177ff222875b0598e03aeb1db5&amp;dn=Brothers+Justice+XViD+DVDRIP+-+IMAGiNE&amp;tr=udp%3A%2F%2Ftracker.openbittorrent.com%3A80&amp;tr=udp%3A%2F%2Fopen.demonii.com%3A1337&amp;tr=udp%3A%2F%2Ftracker.coppersurfer.tk%3A6969&amp;tr=udp%3A%2F%2Fexodus.desync.com%3A6969","seeders":0,"leechers":1,"uploader":"SAFCukO09","files":2,"time":1308652016,"description":"*********** **** **** *** ******** *********** **** *** **********\n*+* +*+*+* *+*+*+ *+* *+* *+* *+* *+* *+*+* *+* *+*\n+*+ +*+ +*+*+ +*+ +*+ +*+ +*+ +*+ *+*+*+ +*+ +*+\n+$+ +$+ +*+ +$+ +$++*++$++* *$* +$+ +$+ +*+ +$+ +$++*++$\n+$+ +$+ +$+ +$+ +$+ +$+ +$+$ +$+ +$+ +$+$+$ +$+\n$+$ $+$ $+$ $+$ $+$ $+$ $+$ $+$ $+$ $+$+$ $+$\n$$$$$$$$$$$ $$$ $$$ $$$ $$$ $$$$$$$$ $$$$$$$$$$$ $$$ $$$$ $$$$$$$$$$\n\n\n\n\nAnother Fine Release Brought to you from - IMAGiNE\n\n\n********************************************************************************************************************\nBrothers Justice XViD DVDRIP - IMAGiNE\n********************************************************************************************************************\n\nRipper ...........:IMAGiNE IMDB Rating.......:6.2/10\nVideo Codec.......:XVID Release Date......:20/06/11\nAudio Codec.......:AC-3 Theatre Date......:n/a\nAudio Bitrate.....:448 Runtime...........:1h 17mn\nSubtitles.........:NIL Language..........:ENGLISH\nResolution........:720 x 304 IMDb URL..........:http://www.imdb.com/title/tt1540803/\n\n\nDETAILS:\n\nVideo\nID : 0\nFormat : MPEG-4 Visual\nFormat profile : Advanced Simple@L5\nFormat settings, BVOP : Yes\nFormat settings, QPel : No\nFormat settings, GMC : No warppoints\nFormat settings, Matrix : Default (H.263)\nMuxing mode : Packed bitstream\nCodec ID : XVID\nCodec ID/Hint : XviD\nDuration : 1h 17mn\nBit rate : 2 083 Kbps\nWidth : 720 pixels\nHeight : 304 pixels\nDisplay aspect ratio : 2.35:1\nFrame rate : 25.000 fps\nColor space : YUV\nChroma subsampling : 4:2:0\nBit depth : 8 bits\nScan type : Progressive\nCompression mode : Lossy\nBits/(Pixel*Frame) : 0.381\nStream size : 1.12 GiB (82%)\nWriting library : XviD 58\n\nAudio\nID : 1\nFormat : AC-3\nFormat/Info : Audio Coding 3\nMode extension : CM (complete main)\nCodec ID : 2000\nDuration : 1h 17mn\nBit rate mode : Constant\nBit rate : 448 Kbps\nChannel(s) : 6 channels\nChannel positions : Front: L C R, Side: L R, LFE\nSampling rate : 48.0 KHz\nBit depth : 16 bits\nCompression mode : Lossy\nStream size : 247 MiB (18%)\nAlignment : Aligned on interleaves\nInterleave, duration : 40 ms (1.00 video frame)\nInterleave, preload duration : 512 ms\n","torrent":{"xt":"urn:btih:3e6bf5ea6d66c4177ff222875b0598e03aeb1db5","amp;dn":"Brothers+Justice+XViD+DVDRIP+-+IMAGiNE","amp;tr":["udp%3A%2F%2Ftracker.openbittorrent.com%3A80","udp%3A%2F%2Fopen.demonii.com%3A1337","udp%3A%2F%2Ftracker.coppersurfer.tk%3A6969","udp%3A%2F%2Fexodus.desync.com%3A6969"],"infoHash":"3e6bf5ea6d66c4177ff222875b0598e03aeb1db5","infoHashBuffer":{"type":"Buffer","data":[62,107,245,234,109,102,196,23,127,242,34,135,91,5,152,224,58,235,29,181]},"announce":[],"urlList":[]}}